<svg xmlns="http://www.w3.org/2000/svg" viewBox="0 0 720 420"><rect width="720" height="420" fill="#626766"/><g transform="translate(720 0) rotate(90)"><rect x="0" width="69" height="720" fill="#626766"/><path d="M70 0V720" stroke="#172522" opacity=".48" stroke-width="3"/><path d="M52 -56 C40 29 66 104 52 204 S59 404 50 594" fill="none" stroke="#172522" stroke-width="1.2" opacity=".13"/><path d="M48 46 C36 131 62 206 48 306 S55 506 46 696" fill="none" stroke="#172522" stroke-width="1.2" opacity=".13"/><path d="M47 143 C35 228 61 303 47 403 S54 603 45 793" fill="none" stroke="#172522" stroke-width="1.2" opacity=".13"/><path d="M34 -69 C22 16 48 91 34 191 S41 391 32 581" fill="none" stroke="#172522" stroke-width="1.2" opacity=".13"/><path d="M41 -62 C29 23 55 98 41 198 S48 398 39 588" fill="none" stroke="#172522" stroke-width="1.2" opacity=".13"/><path d="M35 -29 C23 56 49 131 35 231 S42 431 33 621" fill="none" stroke="#172522" stroke-width="1.2" opacity=".13"/><path d="M17 112 C5 197 31 272 17 372 S24 572 15 762" fill="none" stroke="#172522" stroke-width="1.2" opacity=".13"/><rect x="72" width="69" height="720" fill="#626766"/><path d="M142 0V720" stroke="#172522" opacity=".48" stroke-width="3"/><path d="M93 -72 C81 13 107 88 93 188 S100 388 91 578" fill="none" stroke="#172522" stroke-width="1.2" opacity=".13"/><path d="M110 172 C98 257 124 332 110 432 S117 632 108 822" fill="none" stroke="#172522" stroke-width="1.2" opacity=".13"/><path d="M95 60 C83 145 109 220 95 320 S102 520 93 710" fill="none" stroke="#172522" stroke-width="1.2" opacity=".13"/><path d="M103 -90 C91 -5 117 70 103 170 S110 370 101 560" fill="none" stroke="#172522" stroke-width="1.2" opacity=".13"/><path d="M116 -105 C104 -20 130 55 116 155 S123 355 114 545" fill="none" stroke="#172522" stroke-width="1.2" opacity=".13"/><path d="M127 -39 C115 46 141 121 127 221 S134 421 125 611" fill="none" stroke="#172522" stroke-width="1.2" opacity=".13"/><path d="M112 137 C100 222 126 297 112 397 S119 597 110 787" fill="none" stroke="#172522" stroke-width="1.2" opacity=".13"/><rect x="144" width="69" height="720" fill="#626766"/><path d="M214 0V720" stroke="#172522" opacity=".48" stroke-width="3"/><path d="M183 -57 C171 28 197 103 183 203 S190 403 181 593" fill="none" stroke="#172522" stroke-width="1.2" opacity=".13"/><path d="M184 -104 C172 -19 198 56 184 156 S191 356 182 546" fill="none" stroke="#172522" stroke-width="1.2" opacity=".13"/><path d="M154 96 C142 181 168 256 154 356 S161 556 152 746" fill="none" stroke="#172522" stroke-width="1.2" opacity=".13"/><path d="M169 47 C157 132 183 207 169 307 S176 507 167 697" fill="none" stroke="#172522" stroke-width="1.2" opacity=".13"/><path d="M175 107 C163 192 189 267 175 367 S182 567 173 757" fill="none" stroke="#172522" stroke-width="1.2" opacity=".13"/><path d="M171 4 C159 89 185 164 171 264 S178 464 169 654" fill="none" stroke="#172522" stroke-width="1.2" opacity=".13"/><path d="M181 145 C169 230 195 305 181 405 S188 605 179 795" fill="none" stroke="#172522" stroke-width="1.2" opacity=".13"/><rect x="216" width="69" height="720" fill="#626766"/><path d="M286 0V720" stroke="#172522" opacity=".48" stroke-width="3"/><path d="M271 113 C259 198 285 273 271 373 S278 573 269 763" fill="none" stroke="#172522" stroke-width="1.2" opacity=".13"/><path d="M222 -61 C210 24 236 99 222 199 S229 399 220 589" fill="none" stroke="#172522" stroke-width="1.2" opacity=".13"/><path d="M228 138 C216 223 242 298 228 398 S235 598 226 788" fill="none" stroke="#172522" stroke-width="1.2" opacity=".13"/><path d="M268 -47 C256 38 282 113 268 213 S275 413 266 603" fill="none" stroke="#172522" stroke-width="1.2" opacity=".13"/><path d="M227 -97 C215 -12 241 63 227 163 S234 363 225 553" fill="none" stroke="#172522" stroke-width="1.2" opacity=".13"/><path d="M266 62 C254 147 280 222 266 322 S273 522 264 712" fill="none" stroke="#172522" stroke-width="1.2" opacity=".13"/><path d="M235 5 C223 90 249 165 235 265 S242 465 233 655" fill="none" stroke="#172522" stroke-width="1.2" opacity=".13"/><rect x="288" width="69" height="720" fill="#626766"/><path d="M358 0V720" stroke="#172522" opacity=".48" stroke-width="3"/><path d="M340 173 C328 258 354 333 340 433 S347 633 338 823" fill="none" stroke="#172522" stroke-width="1.2" opacity=".13"/><path d="M334 -76 C322 9 348 84 334 184 S341 384 332 574" fill="none" stroke="#172522" stroke-width="1.2" opacity=".13"/><path d="M316 20 C304 105 330 180 316 280 S323 480 314 670" fill="none" stroke="#172522" stroke-width="1.2" opacity=".13"/><path d="M348 43 C336 128 362 203 348 303 S355 503 346 693" fill="none" stroke="#172522" stroke-width="1.2" opacity=".13"/><path d="M350 61 C338 146 364 221 350 321 S357 521 348 711" fill="none" stroke="#172522" stroke-width="1.2" opacity=".13"/><path d="M326 -93 C314 -8 340 67 326 167 S333 367 324 557" fill="none" stroke="#172522" stroke-width="1.2" opacity=".13"/><path d="M326 110 C314 195 340 270 326 370 S333 570 324 760" fill="none" stroke="#172522" stroke-width="1.2" opacity=".13"/><rect x="360" width="69" height="720" fill="#626766"/><path d="M430 0V720" stroke="#172522" opacity=".48" stroke-width="3"/><path d="M386 -6 C374 79 400 154 386 254 S393 454 384 644" fill="none" stroke="#172522" stroke-width="1.2" opacity=".13"/><path d="M390 125 C378 210 404 285 390 385 S397 585 388 775" fill="none" stroke="#172522" stroke-width="1.2" opacity=".13"/><path d="M412 -51 C400 34 426 109 412 209 S419 409 410 599" fill="none" stroke="#172522" stroke-width="1.2" opacity=".13"/><path d="M403 -116 C391 -31 417 44 403 144 S410 344 401 534" fill="none" stroke="#172522" stroke-width="1.2" opacity=".13"/><path d="M374 109 C362 194 388 269 374 369 S381 569 372 759" fill="none" stroke="#172522" stroke-width="1.2" opacity=".13"/><path d="M419 77 C407 162 433 237 419 337 S426 537 417 727" fill="none" stroke="#172522" stroke-width="1.2" opacity=".13"/><path d="M422 -98 C410 -13 436 62 422 162 S429 362 420 552" fill="none" stroke="#172522" stroke-width="1.2" opacity=".13"/></g></svg>