<svg xmlns="http://www.w3.org/2000/svg" viewBox="0 0 720 420"><rect width="720" height="420" fill="#ad845b"/><g transform="translate(720 0) rotate(90)"><rect x="0" width="69" height="720" fill="#ad845b"/><path d="M70 0V720" stroke="#172522" opacity=".48" stroke-width="3"/><path d="M29 78 C17 163 43 238 29 338 S36 538 27 728" fill="none" stroke="#172522" stroke-width="1.2" opacity=".13"/><path d="M18 60 C6 145 32 220 18 320 S25 520 16 710" fill="none" stroke="#172522" stroke-width="1.2" opacity=".13"/><path d="M23 82 C11 167 37 242 23 342 S30 542 21 732" fill="none" stroke="#172522" stroke-width="1.2" opacity=".13"/><path d="M30 21 C18 106 44 181 30 281 S37 481 28 671" fill="none" stroke="#172522" stroke-width="1.2" opacity=".13"/><path d="M54 -116 C42 -31 68 44 54 144 S61 344 52 534" fill="none" stroke="#172522" stroke-width="1.2" opacity=".13"/><path d="M11 -61 C-1 24 25 99 11 199 S18 399 9 589" fill="none" stroke="#172522" stroke-width="1.2" opacity=".13"/><path d="M39 -40 C27 45 53 120 39 220 S46 420 37 610" fill="none" stroke="#172522" stroke-width="1.2" opacity=".13"/><rect x="72" width="69" height="720" fill="#ad845b"/><path d="M142 0V720" stroke="#172522" opacity=".48" stroke-width="3"/><path d="M107 50 C95 135 121 210 107 310 S114 510 105 700" fill="none" stroke="#172522" stroke-width="1.2" opacity=".13"/><path d="M94 -15 C82 70 108 145 94 245 S101 445 92 635" fill="none" stroke="#172522" stroke-width="1.2" opacity=".13"/><path d="M99 -33 C87 52 113 127 99 227 S106 427 97 617" fill="none" stroke="#172522" stroke-width="1.2" opacity=".13"/><path d="M126 80 C114 165 140 240 126 340 S133 540 124 730" fill="none" stroke="#172522" stroke-width="1.2" opacity=".13"/><path d="M104 -100 C92 -15 118 60 104 160 S111 360 102 550" fill="none" stroke="#172522" stroke-width="1.2" opacity=".13"/><path d="M120 162 C108 247 134 322 120 422 S127 622 118 812" fill="none" stroke="#172522" stroke-width="1.2" opacity=".13"/><path d="M91 -31 C79 54 105 129 91 229 S98 429 89 619" fill="none" stroke="#172522" stroke-width="1.2" opacity=".13"/><rect x="144" width="69" height="720" fill="#ad845b"/><path d="M214 0V720" stroke="#172522" opacity=".48" stroke-width="3"/><path d="M158 117 C146 202 172 277 158 377 S165 577 156 767" fill="none" stroke="#172522" stroke-width="1.2" opacity=".13"/><path d="M180 164 C168 249 194 324 180 424 S187 624 178 814" fill="none" stroke="#172522" stroke-width="1.2" opacity=".13"/><path d="M174 138 C162 223 188 298 174 398 S181 598 172 788" fill="none" stroke="#172522" stroke-width="1.2" opacity=".13"/><path d="M200 67 C188 152 214 227 200 327 S207 527 198 717" fill="none" stroke="#172522" stroke-width="1.2" opacity=".13"/><path d="M195 -37 C183 48 209 123 195 223 S202 423 193 613" fill="none" stroke="#172522" stroke-width="1.2" opacity=".13"/><path d="M184 -36 C172 49 198 124 184 224 S191 424 182 614" fill="none" stroke="#172522" stroke-width="1.2" opacity=".13"/><path d="M182 -111 C170 -26 196 49 182 149 S189 349 180 539" fill="none" stroke="#172522" stroke-width="1.2" opacity=".13"/><rect x="216" width="69" height="720" fill="#ad845b"/><path d="M286 0V720" stroke="#172522" opacity=".48" stroke-width="3"/><path d="M255 -114 C243 -29 269 46 255 146 S262 346 253 536" fill="none" stroke="#172522" stroke-width="1.2" opacity=".13"/><path d="M248 -5 C236 80 262 155 248 255 S255 455 246 645" fill="none" stroke="#172522" stroke-width="1.2" opacity=".13"/><path d="M263 -43 C251 42 277 117 263 217 S270 417 261 607" fill="none" stroke="#172522" stroke-width="1.2" opacity=".13"/><path d="M253 -75 C241 10 267 85 253 185 S260 385 251 575" fill="none" stroke="#172522" stroke-width="1.2" opacity=".13"/><path d="M251 71 C239 156 265 231 251 331 S258 531 249 721" fill="none" stroke="#172522" stroke-width="1.2" opacity=".13"/><path d="M240 15 C228 100 254 175 240 275 S247 475 238 665" fill="none" stroke="#172522" stroke-width="1.2" opacity=".13"/><path d="M274 -79 C262 6 288 81 274 181 S281 381 272 571" fill="none" stroke="#172522" stroke-width="1.2" opacity=".13"/><rect x="288" width="69" height="720" fill="#ad845b"/><path d="M358 0V720" stroke="#172522" opacity=".48" stroke-width="3"/><path d="M302 80 C290 165 316 240 302 340 S309 540 300 730" fill="none" stroke="#172522" stroke-width="1.2" opacity=".13"/><path d="M312 -112 C300 -27 326 48 312 148 S319 348 310 538" fill="none" stroke="#172522" stroke-width="1.2" opacity=".13"/><path d="M336 -33 C324 52 350 127 336 227 S343 427 334 617" fill="none" stroke="#172522" stroke-width="1.2" opacity=".13"/><path d="M343 27 C331 112 357 187 343 287 S350 487 341 677" fill="none" stroke="#172522" stroke-width="1.2" opacity=".13"/><path d="M302 -103 C290 -18 316 57 302 157 S309 357 300 547" fill="none" stroke="#172522" stroke-width="1.2" opacity=".13"/><path d="M296 -50 C284 35 310 110 296 210 S303 410 294 600" fill="none" stroke="#172522" stroke-width="1.2" opacity=".13"/><path d="M326 -4 C314 81 340 156 326 256 S333 456 324 646" fill="none" stroke="#172522" stroke-width="1.2" opacity=".13"/><rect x="360" width="69" height="720" fill="#ad845b"/><path d="M430 0V720" stroke="#172522" opacity=".48" stroke-width="3"/><path d="M392 156 C380 241 406 316 392 416 S399 616 390 806" fill="none" stroke="#172522" stroke-width="1.2" opacity=".13"/><path d="M387 37 C375 122 401 197 387 297 S394 497 385 687" fill="none" stroke="#172522" stroke-width="1.2" opacity=".13"/><path d="M382 -53 C370 32 396 107 382 207 S389 407 380 597" fill="none" stroke="#172522" stroke-width="1.2" opacity=".13"/><path d="M408 135 C396 220 422 295 408 395 S415 595 406 785" fill="none" stroke="#172522" stroke-width="1.2" opacity=".13"/><path d="M387 103 C375 188 401 263 387 363 S394 563 385 753" fill="none" stroke="#172522" stroke-width="1.2" opacity=".13"/><path d="M417 -59 C405 26 431 101 417 201 S424 401 415 591" fill="none" stroke="#172522" stroke-width="1.2" opacity=".13"/><path d="M402 179 C390 264 416 339 402 439 S409 639 400 829" fill="none" stroke="#172522" stroke-width="1.2" opacity=".13"/></g></svg>