<svg xmlns="http://www.w3.org/2000/svg" viewBox="0 0 720 420"><rect width="720" height="420" fill="#c2ac87"/><rect x="3" y="3" width="294" height="134" rx="2" fill="#c2ac87" stroke="#74796f" stroke-width="2"/><rect x="4" y="4" width="292" height="132" fill="white" opacity="0.090"/><path d="M12 110 q75 -14 150 2 t126 -6" fill="none" stroke="#555c53" opacity=".15"/><path d="M12 84 q75 -14 150 2 t126 -6" fill="none" stroke="#555c53" opacity=".15"/><path d="M12 16 q75 -14 150 2 t126 -6" fill="none" stroke="#555c53" opacity=".15"/><path d="M12 66 q75 -14 150 2 t126 -6" fill="none" stroke="#555c53" opacity=".15"/><path d="M12 22 q75 -14 150 2 t126 -6" fill="none" stroke="#555c53" opacity=".15"/><rect x="303" y="3" width="174" height="134" rx="2" fill="#c2ac87" stroke="#74796f" stroke-width="2"/><rect x="304" y="4" width="172" height="132" fill="white" opacity="0.031"/><path d="M312 67 q45 -14 90 2 t66 -6" fill="none" stroke="#555c53" opacity=".15"/><path d="M312 32 q45 -14 90 2 t66 -6" fill="none" stroke="#555c53" opacity=".15"/><path d="M312 84 q45 -14 90 2 t66 -6" fill="none" stroke="#555c53" opacity=".15"/><path d="M312 42 q45 -14 90 2 t66 -6" fill="none" stroke="#555c53" opacity=".15"/><path d="M312 58 q45 -14 90 2 t66 -6" fill="none" stroke="#555c53" opacity=".15"/><rect x="483" y="3" width="234" height="134" rx="2" fill="#c2ac87" stroke="#74796f" stroke-width="2"/><rect x="484" y="4" width="232" height="132" fill="black" opacity="0.029"/><path d="M492 70 q60 -14 120 2 t96 -6" fill="none" stroke="#555c53" opacity=".15"/><path d="M492 70 q60 -14 120 2 t96 -6" fill="none" stroke="#555c53" opacity=".15"/><path d="M492 101 q60 -14 120 2 t96 -6" fill="none" stroke="#555c53" opacity=".15"/><path d="M492 65 q60 -14 120 2 t96 -6" fill="none" stroke="#555c53" opacity=".15"/><path d="M492 48 q60 -14 120 2 t96 -6" fill="none" stroke="#555c53" opacity=".15"/><rect x="3" y="143" width="174" height="134" rx="2" fill="#c2ac87" stroke="#74796f" stroke-width="2"/><rect x="4" y="144" width="172" height="132" fill="black" opacity="0.046"/><path d="M12 247 q45 -14 90 2 t66 -6" fill="none" stroke="#555c53" opacity=".15"/><path d="M12 169 q45 -14 90 2 t66 -6" fill="none" stroke="#555c53" opacity=".15"/><path d="M12 197 q45 -14 90 2 t66 -6" fill="none" stroke="#555c53" opacity=".15"/><path d="M12 177 q45 -14 90 2 t66 -6" fill="none" stroke="#555c53" opacity=".15"/><path d="M12 198 q45 -14 90 2 t66 -6" fill="none" stroke="#555c53" opacity=".15"/><rect x="183" y="143" width="294" height="134" rx="2" fill="#c2ac87" stroke="#74796f" stroke-width="2"/><rect x="184" y="144" width="292" height="132" fill="black" opacity="0.093"/><path d="M192 175 q75 -14 150 2 t126 -6" fill="none" stroke="#555c53" opacity=".15"/><path d="M192 176 q75 -14 150 2 t126 -6" fill="none" stroke="#555c53" opacity=".15"/><path d="M192 214 q75 -14 150 2 t126 -6" fill="none" stroke="#555c53" opacity=".15"/><path d="M192 185 q75 -14 150 2 t126 -6" fill="none" stroke="#555c53" opacity=".15"/><path d="M192 174 q75 -14 150 2 t126 -6" fill="none" stroke="#555c53" opacity=".15"/><rect x="483" y="143" width="234" height="134" rx="2" fill="#c2ac87" stroke="#74796f" stroke-width="2"/><rect x="484" y="144" width="232" height="132" fill="black" opacity="0.093"/><path d="M492 248 q60 -14 120 2 t96 -6" fill="none" stroke="#555c53" opacity=".15"/><path d="M492 245 q60 -14 120 2 t96 -6" fill="none" stroke="#555c53" opacity=".15"/><path d="M492 219 q60 -14 120 2 t96 -6" fill="none" stroke="#555c53" opacity=".15"/><path d="M492 175 q60 -14 120 2 t96 -6" fill="none" stroke="#555c53" opacity=".15"/><path d="M492 188 q60 -14 120 2 t96 -6" fill="none" stroke="#555c53" opacity=".15"/><rect x="3" y="283" width="294" height="134" rx="2" fill="#c2ac87" stroke="#74796f" stroke-width="2"/><rect x="4" y="284" width="292" height="132" fill="black" opacity="0.054"/><path d="M12 368 q75 -14 150 2 t126 -6" fill="none" stroke="#555c53" opacity=".15"/><path d="M12 384 q75 -14 150 2 t126 -6" fill="none" stroke="#555c53" opacity=".15"/><path d="M12 338 q75 -14 150 2 t126 -6" fill="none" stroke="#555c53" opacity=".15"/><path d="M12 317 q75 -14 150 2 t126 -6" fill="none" stroke="#555c53" opacity=".15"/><path d="M12 383 q75 -14 150 2 t126 -6" fill="none" stroke="#555c53" opacity=".15"/><rect x="303" y="283" width="174" height="134" rx="2" fill="#c2ac87" stroke="#74796f" stroke-width="2"/><rect x="304" y="284" width="172" height="132" fill="black" opacity="0.065"/><path d="M312 386 q45 -14 90 2 t66 -6" fill="none" stroke="#555c53" opacity=".15"/><path d="M312 313 q45 -14 90 2 t66 -6" fill="none" stroke="#555c53" opacity=".15"/><path d="M312 327 q45 -14 90 2 t66 -6" fill="none" stroke="#555c53" opacity=".15"/><path d="M312 300 q45 -14 90 2 t66 -6" fill="none" stroke="#555c53" opacity=".15"/><path d="M312 378 q45 -14 90 2 t66 -6" fill="none" stroke="#555c53" opacity=".15"/><rect x="483" y="283" width="234" height="134" rx="2" fill="#c2ac87" stroke="#74796f" stroke-width="2"/><rect x="484" y="284" width="232" height="132" fill="white" opacity="0.098"/><path d="M492 328 q60 -14 120 2 t96 -6" fill="none" stroke="#555c53" opacity=".15"/><path d="M492 369 q60 -14 120 2 t96 -6" fill="none" stroke="#555c53" opacity=".15"/><path d="M492 315 q60 -14 120 2 t96 -6" fill="none" stroke="#555c53" opacity=".15"/><path d="M492 335 q60 -14 120 2 t96 -6" fill="none" stroke="#555c53" opacity=".15"/><path d="M492 373 q60 -14 120 2 t96 -6" fill="none" stroke="#555c53" opacity=".15"/></svg>